<svg width="345.57628173828124px" height="122px" xmlns="http://www.w3.org/2000/svg" viewBox="77.21185913085938 14 345.57628173828124 122" 
style="background: rgba(255, 255, 255, 0);" preserveAspectRatio="xMidYMid">
<defs>
  <filter id="editing-raise" x="-100%" y="-100%" width="300%" height="300%">
  <feFlood flood-color="#40a798" result="flood-surface">
  </feFlood>
  <feFlood flood-color="#0d6f72" result="flood-extrude">
  </feFlood>
  <feMorphology operator="erode" in="SourceAlpha" radius="1" result="erode"></feMorphology><feConvolveMatrix in="erode" result="shadow" order="11,8" divisor="1" kernelMatrix="0 0 0 1 1 1 1 1 0 0 0 0 0 1 0 0 0 0 0 1 0 0 0 0 1 0 0 0 0 0 1 0 0 0 0 1 0 0 0 0 0 1 0 0 0 0 1 0 0 0 0 0 1 0 0 0 0 0 1 0 0 0 1 0 0 0 0 0 0 1 1 0 1 1 0 0 0 0 0 0 0 0 1 0 0 0 0 0"></feConvolveMatrix><feOffset dx="0" dy="4" in="shadow" result="offset"></feOffset><feGaussianBlur in="offset" stdDeviation="0.2" result="blur"></feGaussianBlur><feComposite operator="in" in="flood-extrude" in2="blur" result="extrude"></feComposite><feMorphology operator="erode" in="SourceAlpha" radius="1" result="erode2"></feMorphology><feConvolveMatrix in="erode2" result="out" order="4,4" divisor="1" kernelMatrix="0 1 1 0 1 0 0 1 1 0 0 1 0 1 1 0 "></feConvolveMatrix><feComposite operator="in" in="flood-surface" in2="out" result="text"></feComposite><feMerge><feMergeNode in="extrude"></feMergeNode><feMergeNode in="text"></feMergeNode></feMerge></filter></defs><g filter="url(#editing-raise)"><g transform="translate(130.21124815940857, 104.09000015258789)"><path d="M7.23 0.83L8.64-3.84L8.64-3.84Q10.88-2.62 14.21-2.62L14.21-2.62L14.21-2.62Q17.54-2.62 20.32-4.64L20.32-4.64L20.32-4.64Q23.10-6.66 25.09-10.37L25.09-10.37L25.09-10.37Q29.18-18.24 29.18-30.91L29.18-30.91L29.18-30.91Q29.18-38.98 25.54-38.98L25.54-38.98L25.54-38.98Q23.62-38.98 21.76-36.86L21.76-36.86L21.76-36.86Q19.90-34.75 18.43-31.36L18.43-31.36L18.43-31.36Q15.23-23.62 15.23-14.53L15.23-14.53L15.23-14.53Q15.23-12.67 16.13-11.55L16.13-11.55L16.13-11.55Q17.02-10.43 18.62-10.43L18.62-10.43L18.62-10.43Q18.37-8.45 16.64-7.04L16.64-7.04L16.64-7.04Q14.91-5.63 12.74-5.63L12.74-5.63L12.74-5.63Q7.55-5.63 4.90-8.86L4.90-8.86L4.90-8.86Q2.24-12.10 2.24-17.95L2.24-17.95L2.24-17.95Q2.24-23.81 4.03-28.42L4.03-28.42L4.03-28.42Q5.82-33.02 8.96-36.38L8.96-36.38L8.96-36.38Q12.10-39.74 16.42-41.66L16.42-41.66L16.42-41.66Q20.74-43.58 25.86-43.58L25.86-43.58L25.86-43.58Q43.01-43.58 43.01-26.88L43.01-26.88L43.01-26.88Q43.01-14.85 37.25-7.49L37.25-7.49L37.25-7.49Q31.49-0.06 21.50 0.83L21.50 0.83L21.50 0.83Q27.39 2.11 33.34 2.11L33.34 2.11L33.34 2.11Q38.02 2.11 41.47 0.13L41.47 0.13L41.47 0.13Q42.43-0.45 42.82-1.09L42.82-1.09L42.82-1.09Q44.74 0.64 44.74 4.06L44.74 4.06L44.74 4.06Q44.74 7.49 41.70 9.47L41.70 9.47L41.70 9.47Q38.66 11.46 32.74 11.46L32.74 11.46L32.74 11.46Q26.82 11.46 19.97 8.70L19.97 8.70L19.97 8.70Q13.12 5.95 7.23 0.83L7.23 0.83ZM66.62-2.69L66.62-2.69L66.62-2.69Q63.55 1.28 55.94 1.28L55.94 1.28L55.94 1.28Q51.97 1.28 49.09-1.12L49.09-1.12L49.09-1.12Q46.21-3.52 46.21-6.98L46.21-6.98L46.21-6.98Q46.21-8.90 46.40-9.86L46.40-9.86L50.69-32.64L63.68-33.92L59.01-9.22L59.01-9.22Q58.75-7.81 58.75-6.98L58.75-6.98L58.75-6.98Q58.75-3.26 60.99-3.26L60.99-3.26L60.99-3.26Q63.49-3.26 65.28-6.66L65.28-6.66L65.28-6.66Q65.86-7.74 66.11-9.15L66.11-9.15L70.66-32.64L83.26-33.92L78.53-8.96L78.53-8.96Q78.34-8 78.34-6.98L78.34-6.98L78.34-6.98Q78.34-5.95 78.91-4.83L78.91-4.83L78.91-4.83Q79.49-3.71 81.34-3.46L81.34-3.46L81.34-3.46Q80.96-1.92 79.62-0.90L79.62-0.90L79.62-0.90Q76.80 1.28 73.76 1.28L73.76 1.28L73.76 1.28Q70.72 1.28 68.93 0.19L68.93 0.19L68.93 0.19Q67.14-0.90 66.62-2.69ZM102.08-3.52L102.08-3.52L102.08-3.52Q100.10 1.28 93.76 1.28L93.76 1.28L93.76 1.28Q90.50 1.28 88.45-0.96L88.45-0.96L88.45-0.96Q86.72-2.94 86.72-4.93L86.72-4.93L86.72-4.93Q86.72-10.11 89.09-20.22L89.09-20.22L91.46-32.64L104.45-33.92L100.54-13.70L100.54-13.70Q99.46-8.96 99.46-7.30L99.46-7.30L99.46-7.30Q99.46-3.65 102.08-3.52ZM92.61-41.54L92.61-41.54L92.61-41.54Q92.61-44.03 94.69-45.38L94.69-45.38L94.69-45.38Q96.77-46.72 99.78-46.72L99.78-46.72L99.78-46.72Q102.78-46.72 104.61-45.38L104.61-45.38L104.61-45.38Q106.43-44.03 106.43-41.54L106.43-41.54L106.43-41.54Q106.43-39.04 104.42-37.76L104.42-37.76L104.42-37.76Q102.40-36.48 99.39-36.48L99.39-36.48L99.39-36.48Q96.38-36.48 94.50-37.76L94.50-37.76L94.50-37.76Q92.61-39.04 92.61-41.54ZM119.84 0.64L119.84 0.64L119.84 0.64Q116.80 0 115.23-0.29L115.23-0.29L115.23-0.29Q113.66-0.58 111.84-0.58L111.84-0.58L111.84-0.58Q110.02-0.58 108.22 0.06L108.22 0.06L108.22 0.06Q107.26-0.51 106.66-1.66L106.66-1.66L106.66-1.66Q106.05-2.82 106.05-4.61L106.05-4.61L106.05-4.61Q106.05-8.38 109.89-11.26L109.89-11.26L126.14-22.98L126.14-22.98Q121.60-24.26 117.47-24.26L117.47-24.26L117.47-24.26Q113.34-24.26 111.87-21.44L111.87-21.44L111.87-21.44Q109.70-24 109.70-28.03L109.70-28.03L109.70-28.03Q109.70-30.72 111.65-32.48L111.65-32.48L111.65-32.48Q113.60-34.24 117.70-34.24L117.70-34.24L117.70-34.24Q120-34.24 122.08-33.95L122.08-33.95L122.08-33.95Q124.16-33.66 126.02-33.41L126.02-33.41L129.47-32.90L129.47-32.90Q131.14-32.64 132.83-32.64L132.83-32.64L132.83-32.64Q134.53-32.64 135.81-33.34L135.81-33.34L135.81-33.34Q137.47-31.81 137.47-29.70L137.47-29.70L137.47-29.70Q137.47-26.37 133.38-22.91L133.38-22.91L117.18-10.82L117.18-10.82Q122.18-9.34 124.74-9.34L124.74-9.34L124.74-9.34Q130.11-9.34 132.42-11.90L132.42-11.90L132.42-11.90Q134.21-9.86 134.21-6.30L134.21-6.30L134.21-6.30Q134.21-2.75 131.90-0.74L131.90-0.74L131.90-0.74Q129.60 1.28 125.44 1.28L125.44 1.28L125.44 1.28Q122.88 1.28 119.84 0.64ZM152.10 0.64L152.10 0.64L152.10 0.64Q149.06 0 147.49-0.29L147.49-0.29L147.49-0.29Q145.92-0.58 144.10-0.58L144.10-0.58L144.10-0.58Q142.27-0.58 140.48 0.06L140.48 0.06L140.48 0.06Q139.52-0.51 138.91-1.66L138.91-1.66L138.91-1.66Q138.30-2.82 138.30-4.61L138.30-4.61L138.30-4.61Q138.30-8.38 142.14-11.26L142.14-11.26L158.40-22.98L158.40-22.98Q153.86-24.26 149.73-24.26L149.73-24.26L149.73-24.26Q145.60-24.26 144.13-21.44L144.13-21.44L144.13-21.44Q141.95-24 141.95-28.03L141.95-28.03L141.95-28.03Q141.95-30.72 143.90-32.48L143.90-32.48L143.90-32.48Q145.86-34.24 149.95-34.24L149.95-34.24L149.95-34.24Q152.26-34.24 154.34-33.95L154.34-33.95L154.34-33.95Q156.42-33.66 158.27-33.41L158.27-33.41L161.73-32.90L161.73-32.90Q163.39-32.64 165.09-32.64L165.09-32.64L165.09-32.64Q166.78-32.64 168.06-33.34L168.06-33.34L168.06-33.34Q169.73-31.81 169.73-29.70L169.73-29.70L169.73-29.70Q169.73-26.37 165.63-22.91L165.63-22.91L149.44-10.82L149.44-10.82Q154.43-9.34 156.99-9.34L156.99-9.34L156.99-9.34Q162.37-9.34 164.67-11.90L164.67-11.90L164.67-11.90Q166.46-9.86 166.46-6.30L166.46-6.30L166.46-6.30Q166.46-2.75 164.16-0.74L164.16-0.74L164.16-0.74Q161.86 1.28 157.70 1.28L157.70 1.28L157.70 1.28Q155.14 1.28 152.10 0.64ZM197.95-10.82L197.95-10.82L197.95-10.82Q199.55-9.73 199.55-7.33L199.55-7.33L199.55-7.33Q199.55-4.93 198.34-3.39L198.34-3.39L198.34-3.39Q197.12-1.86 195.14-0.83L195.14-0.83L195.14-0.83Q191.04 1.28 186.62 1.28L186.62 1.28L186.62 1.28Q182.21 1.28 179.62 0.32L179.62 0.32L179.62 0.32Q177.02-0.64 175.30-2.43L175.30-2.43L175.30-2.43Q171.90-5.82 171.90-12.03L171.90-12.03L171.90-12.03Q171.90-21.70 177.15-27.58L177.15-27.58L177.15-27.58Q182.78-33.92 192.58-33.92L192.58-33.92L192.58-33.92Q198.66-33.92 201.66-31.36L201.66-31.36L201.66-31.36Q203.90-29.44 203.90-26.30L203.90-26.30L203.90-26.30Q203.90-15.04 184.45-15.04L184.45-15.04L184.45-15.04Q184.19-13.38 184.19-11.97L184.19-11.97L184.19-11.97Q184.19-9.02 185.50-7.90L185.50-7.90L185.50-7.90Q186.82-6.78 189.25-6.78L189.25-6.78L189.25-6.78Q191.68-6.78 194.27-7.90L194.27-7.90L194.27-7.90Q196.86-9.02 197.95-10.82ZM184.90-17.79L184.90-17.79L184.90-17.79Q189.44-17.79 192.06-20.61L192.06-20.61L192.06-20.61Q194.69-23.30 194.69-27.58L194.69-27.58L194.69-27.58Q194.69-29.06 194.14-29.86L194.14-29.86L194.14-29.86Q193.60-30.66 192.51-30.66L192.51-30.66L192.51-30.66Q191.42-30.66 190.50-30.24L190.50-30.24L190.50-30.24Q189.57-29.82 188.61-28.42L188.61-28.42L188.61-28.42Q186.24-25.22 184.90-17.79ZM226.11-17.98L226.11-17.98L226.11-17.98Q228.42-22.08 228.42-26.24L228.42-26.24L228.42-26.24Q228.42-28.99 226.43-28.99L226.43-28.99L226.43-28.99Q224.90-28.99 223.30-26.37L223.30-26.37L223.30-26.37Q221.63-23.74 221.12-20.35L221.12-20.35L217.79 0L204.54 1.28L211.07-32.64L221.63-33.92L220.48-27.46L220.48-27.46Q223.62-33.92 230.66-33.92L230.66-33.92L230.66-33.92Q234.37-33.92 236.38-32L236.38-32L236.38-32Q238.40-30.08 238.40-26.14L238.40-26.14L238.40-26.14Q238.40-22.21 235.81-19.71L235.81-19.71L235.81-19.71Q233.22-17.22 228.80-17.22L228.80-17.22L228.80-17.22Q226.88-17.22 226.11-17.98Z"></path></g></g><style>text {
  font-size: 64px;
  font-family: Arial Black;
  dominant-baseline: central;
  text-anchor: middle;
}</style></svg>